<!--?xml version="1.0" standalone="no"?-->
              <svg id="sw-js-blob-svg" viewBox="0 0 100 100" xmlns="http://www.w3.org/2000/svg" version="1.1">
                    <defs> 
                        <linearGradient id="sw-gradient" x1="0" x2="1" y1="1" y2="0">
                            <stop id="stop1" stop-color="rgba(255, 255, 255, 1)" offset="0%"></stop>
                            <stop id="stop2" stop-color="rgba(87.953, 207.405, 228.888, 1)" offset="100%"></stop>
                        </linearGradient>
                    </defs>
                <path fill="url(#sw-gradient)" d="M22.6,-38.7C28.7,-35.6,32.8,-28.4,36.6,-21.3C40.4,-14.2,44,-7.1,44.3,0.2C44.6,7.4,41.6,14.9,37.2,21C32.8,27.1,27,31.9,20.6,34.7C14.1,37.5,7.1,38.3,0.1,38.2C-7,38.2,-13.9,37.2,-20.5,34.4C-27,31.7,-33.1,27.2,-36.5,21.1C-39.8,15.1,-40.4,7.6,-40.5,-0.1C-40.6,-7.7,-40.3,-15.4,-37.4,-22.2C-34.5,-29,-29,-34.9,-22.4,-37.8C-15.7,-40.7,-7.9,-40.6,0.2,-40.9C8.2,-41.2,16.4,-41.9,22.6,-38.7Z" width="100%" height="100%" transform="translate(50 50)" stroke-width="0" style="transition: all 0.3s ease 0s;" stroke="url(#sw-gradient)"></path>
              </svg>